<svg width="15" height="20" viewBox="0 0 15 20" fill="none" xmlns="http://www.w3.org/2000/svg">
<path id="Vector" d="M2.28783 0.5C1.02652 0.5 0 1.53124 0 2.79834V17.2017C0 18.4688 1.02652 19.5 2.28783 19.5H12.7122C13.9735 19.5 15 18.4688 15 17.2017V6.09648C15 6.08731 14.9922 6.08076 14.9909 6.07159C14.9881 5.99462 14.9581 5.92117 14.9061 5.86455L9.68869 0.623172C9.63542 0.572249 9.56635 0.541256 9.49304 0.535379C9.46043 0.526207 9.43435 0.5 9.40174 0.5H2.28783ZM2.28783 1.15517H9.13043V4.14407C9.13043 5.402 10.1478 6.42407 11.3987 6.42407H14.3478V17.2017C14.3478 18.1071 13.6135 18.8448 12.7122 18.8448H2.28783C1.85424 18.8441 1.4386 18.6708 1.13201 18.3628C0.825413 18.0548 0.652864 17.6372 0.652174 17.2017V2.79834C0.652174 1.8929 1.38783 1.15517 2.28783 1.15517ZM9.78 1.67014C10.7857 2.67386 12.8009 4.68393 13.8848 5.7689H11.3987C10.5078 5.7689 9.7813 5.03903 9.7813 4.14407L9.78 1.67014Z" fill="#181818"/>
</svg>
