<!DOCTYPE svg PUBLIC "-//W3C//DTD SVG 1.1//EN" "http://www.w3.org/Graphics/SVG/1.1/DTD/svg11.dtd">
<!-- Uploaded to: SVG Repo, www.svgrepo.com, Transformed by: SVG Repo Mixer Tools -->
<svg width="64px" height="64px" viewBox="0 0 24 24" fill="none" xmlns="http://www.w3.org/2000/svg">
<g id="SVGRepo_bgCarrier" stroke-width="0"/>
<g id="SVGRepo_tracerCarrier" stroke-linecap="round" stroke-linejoin="round"/>
<g id="SVGRepo_iconCarrier"> <path d="M20.8506 12.0002V6.50992C20.8506 4.48846 19.2118 2.84973 17.1904 2.84973H6.5098C4.48833 2.84973 2.84961 4.48845 2.84961 6.50992V17.4905C2.84961 19.512 4.48833 21.1507 6.5098 21.1507H11.8501" stroke="#1C1C1C" stroke-width="1.69904" stroke-linecap="round"/> <path d="M7.00269 12H10.0018" stroke="#1C1C1C" stroke-width="1.69904" stroke-linecap="round"/> <path d="M7.00269 8.0022H12.9993" stroke="#1C1C1C" stroke-width="1.69904" stroke-linecap="round"/> <path d="M20.79 15.8827L18.8369 13.8971C18.6389 13.6957 18.3177 13.6957 18.1196 13.8971L14.3632 17.716C14.2545 17.8266 14.201 17.9813 14.2177 18.1368L14.4325 20.1323C14.4455 20.2525 14.5388 20.3474 14.657 20.3605L16.6198 20.5789C16.7727 20.5959 16.9249 20.5415 17.0337 20.431L20.79 16.612C20.9881 16.4106 20.9881 16.0841 20.79 15.8827Z" stroke="#DF1463" stroke-width="1.69904" stroke-linecap="round"/> </g>
</svg>