<svg width="24" height="24" viewBox="0 0 24 24" fill="none" xmlns="http://www.w3.org/2000/svg">
<path fill-rule="evenodd" clip-rule="evenodd" d="M4 5.5C3.17157 5.5 2.5 6.17157 2.5 7V19.1905C2.5 20.0189 3.17157 20.6905 4 20.6905H20C20.8284 20.6905 21.5 20.0189 21.5 19.1905V11.0952C21.5 10.2668 20.8284 9.59525 20 9.59525H13.0141C12.2173 9.59525 11.4682 9.21542 10.9974 8.57264L9.19594 6.11357C8.91342 5.7279 8.46397 5.5 7.98589 5.5H4ZM1.5 7C1.5 5.61929 2.61929 4.5 4 4.5H7.98589C8.78269 4.5 9.53177 4.87982 10.0026 5.52261L11.8041 7.98168C12.0866 8.36735 12.536 8.59525 13.0141 8.59525H20C21.3807 8.59525 22.5 9.71453 22.5 11.0952V19.1905C22.5 20.5712 21.3807 21.6905 20 21.6905H4C2.61929 21.6905 1.5 20.5712 1.5 19.1905V7Z" fill="black"/>
<path fill-rule="evenodd" clip-rule="evenodd" d="M3 1.5H9.48589C10.2827 1.5 11.0318 1.87982 11.5026 2.52261L13.3041 4.98168C13.5866 5.36735 14.036 5.59525 14.5141 5.59525H22V6.59525H14.5141C13.7173 6.59525 12.9682 6.21542 12.4974 5.57264L10.6959 3.11357C10.4134 2.7279 9.96397 2.5 9.48589 2.5H3V1.5Z" fill="black"/>
</svg>
