<svg width="24" height="17" viewBox="0 0 24 17" fill="none" xmlns="http://www.w3.org/2000/svg">
<path id="Vector" d="M12 13.3C13.3636 13.3 14.5227 12.8333 15.4773 11.9C16.4318 10.9667 16.9091 9.83333 16.9091 8.5C16.9091 7.16667 16.4318 6.03333 15.4773 5.1C14.5227 4.16667 13.3636 3.7 12 3.7C10.6364 3.7 9.47727 4.16667 8.52273 5.1C7.56818 6.03333 7.09091 7.16667 7.09091 8.5C7.09091 9.83333 7.56818 10.9667 8.52273 11.9C9.47727 12.8333 10.6364 13.3 12 13.3ZM12 11.38C11.1818 11.38 10.4864 11.1 9.91364 10.54C9.34091 9.98 9.05455 9.3 9.05455 8.5C9.05455 7.7 9.34091 7.02 9.91364 6.46C10.4864 5.9 11.1818 5.62 12 5.62C12.8182 5.62 13.5136 5.9 14.0864 6.46C14.6591 7.02 14.9455 7.7 14.9455 8.5C14.9455 9.3 14.6591 9.98 14.0864 10.54C13.5136 11.1 12.8182 11.38 12 11.38ZM12 16.5C9.34545 16.5 6.92727 15.7756 4.74545 14.3267C2.56364 12.8778 0.981818 10.9356 0 8.5C0.981818 6.06444 2.56364 4.12222 4.74545 2.67333C6.92727 1.22444 9.34545 0.5 12 0.5C14.6545 0.5 17.0727 1.22444 19.2545 2.67333C21.4364 4.12222 23.0182 6.06444 24 8.5C23.0182 10.9356 21.4364 12.8778 19.2545 14.3267C17.0727 15.7756 14.6545 16.5 12 16.5ZM12 14.3667C14.0545 14.3667 15.9409 13.8378 17.6591 12.78C19.3773 11.7222 20.6909 10.2956 21.6 8.5C20.6909 6.70444 19.3773 5.27778 17.6591 4.22C15.9409 3.16222 14.0545 2.63333 12 2.63333C9.94545 2.63333 8.05909 3.16222 6.34091 4.22C4.62273 5.27778 3.30909 6.70444 2.4 8.5C3.30909 10.2956 4.62273 11.7222 6.34091 12.78C8.05909 13.8378 9.94545 14.3667 12 14.3667Z" fill="#172286"/>
</svg>
